.
 
http://www.torrenting.com          :     Once & For all ;)


               www . Torrenting . Com 

(((((((((((((= Enjoy No RAR releases =))))))))))))))))))))


...................................NFO:....................................

.[img]http://i.imgur.com/EeDH4.jpg[/img]
[color=blue]#######################################################################[/color]
[color=#99FF00][b]General:[/b][/color]
[color=blue]#######################################################################[/color]
[b][color=#00FF00]

Complete name                    : In Time 2011 R5 LINE XVID - SCR0N.avi
Format                           : AVI
Format/Info                      : Audio Video Interleave
File size                        : 1.32 GiB
Duration                         : 1h 44mn
Overall bit rate                 : 1 804 Kbps

[/color][/b]
[color=blue]#######################################################################[/color]
[color=#FFFF00][b]Video:[/b][/color]
[color=blue]#######################################################################[/color]
[b][color=#00FF00]

ID                               : 0
Format                           : MPEG-4 Visual
Format profile                   : Advanced Simple@L5
Format settings, BVOP            : 2
Format settings, QPel            : No
Format settings, GMC             : No warppoints
Format settings, Matrix          : Default (H.263)
Muxing mode                      : Packed bitstream
Codec ID                         : XVID
Codec ID/Hint                    : XviD
Duration                         : 1h 44mn
Bit rate                         : 1 602 Kbps
Width                            : 720 pixels
Height                           : 304 pixels
Display aspect ratio             : 2.35:1
Frame rate                       : 25.000 fps
Color space                      : YUV
Chroma subsampling               : 4:2:0
Bit depth                        : 8 bits
Scan type                        : Progressive
Compression mode                 : Lossy
Bits/(Pixel*Frame)               : 0.293
Stream size                      : 1.17 GiB (89%)

[/color][/b]
[color=blue]#######################################################################[/color]
[color=#0000FF][b]Audio 1:[/b][/color]
[color=blue]#######################################################################[/color]
[b][color=#00FF00]

ID                               : 1
Format                           : MPEG Audio
Format version                   : Version 1
Format profile                   : Layer 3
Mode                             : Joint stereo
Mode extension                   : MS Stereo
Codec ID                         : 55
Codec ID/Hint                    : MP3
Duration                         : 1h 44mn
Bit rate mode                    : Constant
Bit rate                         : 192 Kbps
Channel(s)                       : 2 channels
Sampling rate                    : 48.0 KHz
Compression mode                 : Lossy
Stream size                      : 144 MiB (11%)
Alignment                        : Split accross interleaves
Interleave, duration             : 40 ms (1.00 video frame)
Interleave, preload duration     : 500 ms
[/color][/b]
[color=#FFFF00]
SOURCE
Video : russian dvdr
Audio : TDP release thnx guys :D

IMDB :http://www.imdb.com/title/tt1637688/ [/color]

[b][size=2][color=#00CC00]SCR0N is looking for silver supplier,cammers,syncers,Audio and anymore stuff.....
If yall got anything to offer...holler us at scron@hushmail.com[/b][/size][/color] 

[img]http://shareimage.ro/images/8ywmijeu92tjua4s35wq.jpg[/img]
[img]http://shareimage.ro/images/l551zgd61r6ljmj6l6kh.jpg[/img]
[img]http://shareimage.ro/images/lsp9k0iwfk808erq65bz.jpg[/img]
[img]http://shareimage.ro/images/glmg6umpxikavkfo49hw.jpg[/img]
[img]http://shareimage.ro/images/xxx3canozl5szm7837b.jpg[/img]
[img]http://shareimage.ro/images/r2cw6f3tqyth2k61o3jw.jpg[/img]
[img]http://shareimage.ro/images/bkwgn14gi37ccbnlwt62.jpg[/img]
[img]http://shareimage.ro/images/bmgndvi90h6gweo6mama.jpg[/img]
[img]http://shareimage.ro/images/10qv2i56yf1uvp4ctro8.jpg[/img]
[img]http://shareimage.ro/images/p438srwat4p1r4538sn0.jpg[/img]
[img]http://shareimage.ro/images/rpxxqkqef9mcqvznxrs5.jpg[/img]